<svg width="25" height="24" viewBox="0 0 25 24" fill="none" xmlns="http://www.w3.org/2000/svg">
<path fill-rule="evenodd" clip-rule="evenodd" d="M16.5 3.24219H8.5C5.73858 3.24219 3.5 5.48077 3.5 8.24219V16.2422C3.5 19.0036 5.73858 21.2422 8.5 21.2422H16.5C19.2614 21.2422 21.5 19.0036 21.5 16.2422V8.24219C21.5 5.48077 19.2614 3.24219 16.5 3.24219ZM19.75 16.2422C19.7445 18.0348 18.2926 19.4867 16.5 19.4922H8.5C6.70735 19.4867 5.25549 18.0348 5.25 16.2422V8.24219C5.25549 6.44954 6.70735 4.99768 8.5 4.99219H16.5C18.2926 4.99768 19.7445 6.44954 19.75 8.24219V16.2422ZM17.25 8.49219C17.8023 8.49219 18.25 8.04447 18.25 7.49219C18.25 6.93991 17.8023 6.49219 17.25 6.49219C16.6977 6.49219 16.25 6.93991 16.25 7.49219C16.25 8.04447 16.6977 8.49219 17.25 8.49219ZM12.5 7.74219C10.0147 7.74219 8 9.75691 8 12.2422C8 14.7275 10.0147 16.7422 12.5 16.7422C14.9853 16.7422 17 14.7275 17 12.2422C17.0027 11.0479 16.5294 9.90176 15.6849 9.05727C14.8404 8.21278 13.6943 7.73953 12.5 7.74219ZM9.75 12.2422C9.75 13.761 10.9812 14.9922 12.5 14.9922C14.0188 14.9922 15.25 13.761 15.25 12.2422C15.25 10.7234 14.0188 9.49219 12.5 9.49219C10.9812 9.49219 9.75 10.7234 9.75 12.2422Z" fill="white"/>
</svg>
