<svg width="25" height="24" viewBox="0 0 25 24" fill="none" xmlns="http://www.w3.org/2000/svg">
<path fill-rule="evenodd" clip-rule="evenodd" d="M5 3.24219C4.17157 3.24219 3.5 3.91376 3.5 4.74219V19.7422C3.5 20.5706 4.17157 21.2422 5 21.2422H20C20.8284 21.2422 21.5 20.5706 21.5 19.7422V4.74219C21.5 3.91376 20.8284 3.24219 20 3.24219H5ZM9.02076 7.24491C9.02639 8.20116 8.31061 8.79038 7.46123 8.78616C6.66107 8.78194 5.96357 8.14491 5.96779 7.24632C5.97201 6.40116 6.63998 5.72194 7.50764 5.74163C8.38795 5.76132 9.02639 6.40679 9.02076 7.24491ZM12.7797 10.0039H10.2597H10.2583V18.5638H12.9217V18.3641C12.9217 17.9842 12.9214 17.6042 12.9211 17.2241C12.9203 16.2103 12.9194 15.1954 12.9246 14.1819C12.926 13.9358 12.9372 13.6799 13.0005 13.445C13.2381 12.5675 14.0271 12.0008 14.9074 12.1401C15.4727 12.2286 15.8467 12.5563 16.0042 13.0893C16.1013 13.4225 16.1449 13.7811 16.1491 14.1285C16.1605 15.1761 16.1589 16.2237 16.1573 17.2714C16.1567 17.6412 16.1561 18.0112 16.1561 18.381V18.5624H18.828V18.3571C18.828 17.9051 18.8278 17.4532 18.8275 17.0013C18.827 15.8718 18.8264 14.7423 18.8294 13.6124C18.8308 13.1019 18.776 12.5985 18.6508 12.1049C18.4638 11.3708 18.0771 10.7633 17.4485 10.3246C17.0027 10.0124 16.5133 9.81129 15.9663 9.78879C15.904 9.7862 15.8412 9.78281 15.7781 9.7794C15.4984 9.76428 15.2141 9.74892 14.9467 9.80285C14.1817 9.95613 13.5096 10.3063 13.0019 10.9236C12.9429 10.9944 12.8852 11.0663 12.7991 11.1736L12.7797 11.1979V10.0039ZM6.18164 18.5666H8.83242V10.0095H6.18164V18.5666Z" fill="white"/>
</svg>
