<svg width="25" height="24" viewBox="0 0 25 24" fill="none" xmlns="http://www.w3.org/2000/svg">
<path d="M22.093 7.20301C21.9791 6.78041 21.7565 6.39501 21.4474 6.08518C21.1382 5.77534 20.7533 5.55187 20.331 5.43701C18.765 5.00701 12.5 5.00001 12.5 5.00001C12.5 5.00001 6.23599 4.99301 4.66899 5.40401C4.24692 5.52415 3.86282 5.75078 3.55356 6.06214C3.2443 6.3735 3.02028 6.75913 2.90299 7.18201C2.48999 8.74801 2.48599 11.996 2.48599 11.996C2.48599 11.996 2.48199 15.26 2.89199 16.81C3.12199 17.667 3.79699 18.344 4.65499 18.575C6.23699 19.005 12.485 19.012 12.485 19.012C12.485 19.012 18.75 19.019 20.316 18.609C20.7385 18.4943 21.1237 18.2714 21.4336 17.9622C21.7436 17.653 21.9674 17.2682 22.083 16.846C22.497 15.281 22.5 12.034 22.5 12.034C22.5 12.034 22.52 8.76901 22.093 7.20301ZM10.496 15.005L10.501 9.00501L15.708 12.01L10.496 15.005Z" fill="white"/>
</svg>
